<svg width="10" height="16" viewBox="0 0 10 16" fill="none" xmlns="http://www.w3.org/2000/svg">
<path id="Vector" fill-rule="evenodd" clip-rule="evenodd" d="M3.35508 1.21758C4.13443 0.438105 5.19149 0.000130426 6.29375 0H8.43125C8.58872 0 8.73975 0.0625556 8.8511 0.173905C8.96244 0.285255 9.025 0.436278 9.025 0.59375V3.44375C9.025 3.60122 8.96244 3.75225 8.8511 3.86359C8.73975 3.97494 8.58872 4.0375 8.43125 4.0375H6.29375C6.27816 4.0375 6.26271 4.04057 6.24831 4.04654C6.2339 4.05251 6.22081 4.06125 6.20978 4.07228C6.19875 4.08331 6.19001 4.0964 6.18404 4.11081C6.17807 4.12521 6.175 4.14066 6.175 4.15625V5.7H8.43125C8.52152 5.69995 8.6106 5.72048 8.69174 5.76003C8.77288 5.79958 8.84394 5.85711 8.8995 5.92825C8.95507 5.99939 8.99368 6.08226 9.01241 6.17056C9.03114 6.25886 9.02949 6.35027 9.00758 6.43783L8.29508 9.28783C8.26294 9.41633 8.18875 9.53039 8.08432 9.61187C7.97989 9.69335 7.85121 9.73757 7.71875 9.7375H6.175V14.8438C6.175 15.0012 6.11244 15.1522 6.00109 15.2636C5.88975 15.3749 5.73872 15.4375 5.58125 15.4375H2.73125C2.57378 15.4375 2.42276 15.3749 2.31141 15.2636C2.20006 15.1522 2.1375 15.0012 2.1375 14.8438V9.7375H0.59375C0.436278 9.7375 0.285255 9.67494 0.173905 9.56359C0.0625556 9.45225 0 9.30122 0 9.14375V6.29375C0 6.21578 0.0153577 6.13857 0.0451965 6.06653C0.0750352 5.9945 0.11877 5.92904 0.173905 5.87391C0.22904 5.81877 0.294495 5.77504 0.366532 5.7452C0.438569 5.71536 0.515778 5.7 0.59375 5.7H2.1375V4.15625C2.13763 3.05399 2.57561 1.99693 3.35508 1.21758ZM6.29375 1.1875C5.50639 1.1875 4.75128 1.50028 4.19453 2.05703C3.63778 2.61378 3.325 3.36889 3.325 4.15625V6.29375C3.325 6.45122 3.26244 6.60225 3.15109 6.71359C3.03975 6.82494 2.88872 6.8875 2.73125 6.8875H1.1875V8.55H2.73125C2.88872 8.55 3.03975 8.61256 3.15109 8.72391C3.26244 8.83526 3.325 8.98628 3.325 9.14375V14.25H4.9875V9.14375C4.9875 8.98628 5.05006 8.83526 5.16141 8.72391C5.27275 8.61256 5.42378 8.55 5.58125 8.55H7.25483L7.67046 6.8875H5.58125C5.42378 6.8875 5.27275 6.82494 5.16141 6.71359C5.05006 6.60225 4.9875 6.45122 4.9875 6.29375V4.15625C4.9875 3.80981 5.12512 3.47756 5.37009 3.23259C5.61506 2.98762 5.94731 2.85 6.29375 2.85H7.8375V1.1875H6.29375Z" fill="#202020"/>
</svg>
